<?xml version="1.0" standalone="no"?>
<!DOCTYPE svg PUBLIC "-//W3C//DTD SVG 20010904//EN"
 "http://www.w3.org/TR/2001/REC-SVG-20010904/DTD/svg10.dtd">
<svg version="1.0" xmlns="http://www.w3.org/2000/svg"
 width="640.000000pt" height="640.000000pt" viewBox="0 0 640.000000 640.000000"
 preserveAspectRatio="xMidYMid meet">
<metadata>
Created by potrace 1.14, written by Peter Selinger 2001-2017
</metadata>
<g transform="translate(0.000000,640.000000) scale(0.100000,-0.100000)"
fill="#000000" stroke="none">
<path d="M2790 5864 c-73 -15 -204 -61 -295 -103 -33 -16 -71 -32 -85 -36 -44
-14 -221 -119 -330 -195 -217 -153 -462 -395 -590 -585 -30 -44 -66 -96 -81
-115 -14 -19 -48 -75 -74 -125 -26 -49 -69 -131 -96 -181 -27 -49 -72 -155
-100 -235 l-52 -144 -6 -182 c-3 -101 -3 -198 2 -215 4 -18 16 -73 26 -123 11
-49 31 -117 45 -150 14 -33 26 -65 26 -71 0 -6 17 -31 39 -55 33 -37 43 -43
74 -41 41 3 31 30 82 -238 32 -166 37 -180 69 -180 14 0 28 -5 31 -10 4 -6 12
-7 18 -3 14 9 19 10 51 12 l24 1 -1 268 -2 267 23 3 c12 2 22 8 22 13 0 5 25
21 56 35 30 14 64 34 74 44 20 20 80 54 80 46 0 -3 18 13 40 34 23 22 46 40
53 40 7 0 29 15 49 33 20 17 46 39 58 47 12 8 43 31 69 51 25 20 64 45 85 56
35 18 43 19 75 7 33 -12 135 -43 471 -144 212 -63 236 -70 253 -70 12 0 16 14
19 71 2 39 0 78 -3 87 -4 9 -122 76 -263 147 l-257 130 44 40 c24 22 95 85
158 140 160 140 478 454 622 615 67 74 142 157 167 183 l46 48 123 -61 c144
-72 153 -73 275 -16 127 58 121 62 211 -118 45 -90 74 -160 69 -167 -4 -7 -3
-10 3 -6 5 3 27 -31 48 -76 22 -45 42 -84 46 -87 7 -6 40 -67 39 -75 -1 -27 1
-37 6 -32 9 9 62 -73 66 -103 1 -14 13 -36 25 -50 21 -23 21 -25 5 -31 -9 -4
-21 -4 -26 -1 -4 2 -5 -5 -1 -17 3 -11 2 -21 -3 -21 -14 0 -23 -27 -15 -46 3
-8 11 -13 18 -10 16 6 7 -40 -13 -72 -11 -18 -12 -25 -2 -37 7 -8 16 -12 21
-9 5 3 6 -2 2 -11 -4 -13 -1 -16 14 -13 21 3 23 0 23 -29 0 -15 -2 -14 -16 3
-8 10 -13 13 -9 7 9 -18 2 -16 -25 7 -14 12 -18 20 -10 20 9 0 7 5 -5 14 -11
8 -23 12 -26 10 -4 -2 -14 7 -23 21 -10 15 -12 26 -6 30 13 8 13 35 0 35 -5 0
-7 -7 -3 -16 4 -12 1 -15 -13 -12 -10 2 -18 10 -16 16 1 7 -4 12 -11 12 -8 0
-24 11 -36 24 -20 22 -61 32 -61 16 0 -11 -71 -41 -81 -35 -5 4 -9 2 -9 -3 0
-12 -138 -84 -149 -77 -5 3 -11 0 -13 -6 -2 -6 -116 -69 -253 -139 l-250 -128
-3 -78 c-2 -42 -1 -83 2 -90 4 -10 24 -7 88 12 321 97 386 116 583 171 50 14
103 25 118 24 19 -1 26 2 21 10 -4 7 -1 10 7 7 8 -2 15 -18 17 -36 2 -17 10
-36 18 -42 16 -14 19 -50 3 -50 -5 0 -7 6 -3 13 5 8 4 9 -4 2 -6 -5 -12 -39
-14 -75 -3 -58 -5 -65 -23 -63 -11 1 -2 -7 20 -18 l40 -20 -38 5 c-29 4 -34 2
-25 -7 19 -18 79 -37 92 -30 6 4 5 -1 -3 -11 -11 -13 -16 -14 -22 -4 -8 12
-13 4 -10 -15 2 -9 -38 11 -56 28 -7 7 -10 14 -8 16 2 2 -8 5 -22 6 -14 0 -29
7 -34 14 -4 8 -16 14 -26 14 -10 0 -57 6 -105 14 -71 12 -103 12 -174 2 -103
-14 -147 -31 -234 -87 -107 -68 -173 -151 -204 -258 -19 -66 -13 -76 50 -76
43 0 56 4 60 18 20 63 55 119 101 163 30 28 56 49 59 46 3 -2 0 -25 -6 -51
-11 -52 -2 -111 25 -152 l16 -25 167 2 c233 3 228 2 246 57 18 52 21 128 6
166 -12 32 -3 33 43 2 59 -40 106 -98 122 -150 8 -27 15 -53 15 -58 0 -4 -21
-8 -46 -8 -33 0 -51 -5 -60 -17 -13 -17 -15 -17 -28 1 -13 16 -17 17 -30 3
-13 -13 -13 -17 -1 -27 8 -6 13 -25 12 -41 -2 -26 -5 -29 -24 -24 -30 7 -30
-12 0 -26 18 -8 23 -17 19 -36 -3 -13 -11 -27 -19 -30 -12 -5 -12 -7 -1 -14 9
-6 7 -9 -9 -9 -16 0 -23 -6 -23 -20 0 -18 16 -25 43 -21 4 0 7 -8 7 -19 0 -11
-3 -19 -7 -19 -5 1 -24 1 -43 0 -35 -1 -36 -2 -49 -58 -15 -66 -26 -83 -52
-83 -11 0 -19 -4 -19 -10 0 -5 9 -10 20 -10 13 0 20 -7 20 -20 0 -13 -7 -20
-20 -20 -13 0 -20 -7 -20 -20 0 -11 -7 -20 -15 -20 -22 0 -18 -21 5 -27 21 -6
29 -45 8 -40 -7 1 -12 -6 -12 -15 1 -14 -2 -15 -21 -6 -16 7 -23 18 -22 36 1
13 -4 27 -12 30 -11 4 -13 -4 -8 -37 4 -35 2 -43 -16 -53 -30 -15 -67 -59 -67
-79 0 -12 -7 -14 -30 -11 -16 2 -30 9 -30 14 0 5 -5 6 -11 2 -7 -4 -9 -21 -6
-40 4 -23 1 -39 -9 -49 -14 -14 -18 -13 -34 7 l-19 23 6 -40 c8 -56 19 -67 62
-60 34 5 34 5 16 -12 -27 -26 -81 -21 -121 11 -27 22 -34 24 -34 10 0 -11 -5
-14 -17 -10 -17 7 -33 -9 -33 -31 0 -19 18 -15 23 5 4 16 5 16 6 -1 1 -25 -29
-34 -44 -14 -16 22 -25 21 -25 -1 0 -27 -10 -33 -27 -17 -8 8 -19 15 -24 15
-5 0 1 -10 14 -23 l22 -22 -52 -3 c-58 -3 -61 -6 -38 -29 10 -10 25 -13 43 -9
20 5 23 4 12 -4 -8 -5 -23 -10 -32 -10 -10 0 -18 -6 -18 -13 0 -18 -37 -39
-46 -26 -3 6 -12 8 -20 5 -7 -3 -21 2 -29 11 -9 8 -19 12 -23 9 -3 -4 0 -11 8
-17 13 -8 12 -12 -4 -24 -18 -13 -15 -20 7 -16 14 2 7 -17 -9 -23 -25 -10 -66
-7 -59 4 3 6 1 10 -4 10 -6 0 -11 -4 -11 -10 0 -5 -12 -10 -27 -10 -22 0 -25
2 -13 10 13 8 12 10 -2 10 -10 0 -18 -3 -18 -7 0 -5 -27 -8 -59 -8 -33 0 -63
3 -67 8 -10 9 -27 9 -20 -1 2 -4 -12 -7 -32 -5 -31 3 -34 1 -17 -7 16 -8 11
-9 -20 -5 -22 2 -52 5 -67 5 -16 0 -28 4 -28 10 0 15 46 23 68 11 14 -8 23 -8
27 -1 4 6 47 9 111 7 57 -2 110 1 116 5 7 5 -62 7 -154 6 -151 -3 -169 -5
-181 -22 -10 -13 -16 -15 -21 -8 -4 7 -12 12 -17 12 -6 0 -7 -4 -4 -10 3 -5
-4 -10 -16 -10 -19 0 -20 2 -8 17 12 15 12 16 -1 8 -21 -12 -44 -46 -48 -69
-1 -11 -7 -23 -13 -27 -6 -3 -8 -19 -4 -35 4 -23 3 -25 -4 -9 -5 11 -11 16
-12 10 -1 -5 -5 8 -8 30 -4 29 -11 41 -25 43 -22 5 -46 26 -46 40 0 9 -26 19
-67 28 -7 1 -13 -6 -13 -17 0 -12 -7 -19 -19 -19 -18 0 -19 2 -5 28 21 40 19
59 -4 39 -24 -22 -32 -21 -32 2 0 20 -42 37 -61 25 -6 -3 -17 3 -24 14 -10 14
-22 18 -41 14 -17 -3 -25 -1 -21 6 8 12 -74 23 -87 11 -16 -14 -23 -11 -29 12
-5 17 -11 20 -31 15 -19 -5 -26 -2 -31 15 -6 18 -13 20 -61 17 -36 -2 -54 1
-54 8 0 7 -7 14 -15 18 -8 3 -20 18 -27 33 -10 25 -12 26 -16 8 -8 -38 -62
-77 -62 -45 0 6 3 10 8 10 4 0 12 12 19 26 11 23 10 30 -10 53 -17 20 -33 27
-71 29 -45 3 -48 2 -33 -12 8 -9 21 -16 27 -16 6 0 18 -7 26 -15 14 -13 13
-15 -5 -15 -11 0 -26 7 -35 15 -8 8 -23 12 -33 9 -15 -5 -15 -4 -3 5 13 9 11
11 -7 11 -20 0 -21 -4 -18 -57 4 -73 18 -154 29 -172 5 -8 4 -16 -3 -20 -13
-8 10 -73 35 -102 7 -8 12 -25 9 -38 -3 -16 3 -25 20 -33 16 -7 25 -20 25 -33
0 -12 9 -34 21 -49 11 -14 17 -26 13 -26 -4 0 1 -9 10 -19 10 -11 15 -25 11
-30 -3 -6 -1 -11 4 -11 6 0 11 -4 11 -10 0 -12 59 -70 71 -70 5 0 27 -18 50
-40 22 -22 66 -52 97 -67 32 -15 58 -31 60 -35 2 -4 36 -24 75 -44 40 -20 74
-39 77 -43 11 -13 51 -31 60 -26 5 3 11 1 15 -5 3 -5 14 -10 23 -10 9 0 30 -7
45 -15 55 -28 165 -56 314 -80 12 -2 35 -6 52 -10 l30 -6 -20 -36 c-28 -50
-257 -300 -344 -377 -114 -99 -219 -223 -260 -305 -35 -68 -104 -263 -175
-489 -16 -51 -32 -98 -35 -103 -4 -5 409 -9 1074 -9 858 0 1081 3 1081 13 0 6
-16 57 -36 112 -19 55 -38 109 -41 120 -36 123 -111 322 -141 375 -47 86 -158
216 -242 285 -36 29 -94 86 -130 125 -36 40 -80 89 -98 109 -79 86 -120 138
-127 160 -6 20 -4 23 9 18 9 -4 16 -2 16 3 0 5 8 9 18 9 27 -1 95 12 117 21
11 5 52 14 90 21 39 6 77 17 85 24 8 6 39 17 68 23 54 12 103 33 182 79 25 14
54 30 65 37 11 6 34 21 52 34 17 12 38 22 47 22 9 0 16 4 16 8 0 4 35 31 78
59 73 49 172 142 172 163 0 6 7 10 16 10 8 0 13 4 9 9 -3 5 15 31 40 56 25 26
45 54 45 61 0 8 5 14 11 14 5 0 21 24 35 54 13 30 31 59 39 66 8 7 12 16 9 21
-3 5 4 22 15 38 12 16 21 36 21 45 0 9 4 16 9 16 5 0 11 10 14 22 3 13 10 40
15 61 6 22 6 37 1 37 -5 0 -8 17 -5 38 3 20 5 41 5 45 1 5 5 6 10 3 14 -9 20
18 16 66 -2 24 -4 48 -5 53 -6 29 1 85 10 80 6 -4 10 16 10 54 0 38 4 61 13
64 10 4 10 7 0 18 -7 7 -13 18 -13 24 0 5 5 3 10 -5 7 -11 10 -7 10 18 0 17
-4 32 -10 32 -14 0 -12 28 3 33 9 3 9 8 -3 21 -8 10 -16 27 -17 39 -3 20 -2
20 24 -5 30 -27 117 -46 128 -28 4 6 10 8 15 5 5 -3 18 3 28 13 14 14 30 79
62 245 26 133 49 227 55 227 6 0 21 -13 33 -30 13 -16 28 -30 35 -30 43 0 130
154 166 294 25 93 45 312 39 407 -9 118 -62 286 -144 454 -99 203 -172 326
-322 537 -70 99 -190 228 -337 363 -81 74 -184 129 -330 175 -38 13 -144 58
-235 102 -91 44 -205 95 -255 113 -49 18 -125 50 -168 70 -101 47 -175 55
-492 54 -166 0 -260 -5 -305 -15z m1670 -1635 c0 -6 -4 -7 -10 -4 -5 3 -10 11
-10 16 0 6 5 7 10 4 6 -3 10 -11 10 -16z m-23 -106 c-3 -10 -5 -4 -5 12 0 17
2 24 5 18 2 -7 2 -21 0 -30z m107 -15 c-3 -5 -12 -4 -20 3 -19 16 -18 18 6 12
11 -3 17 -9 14 -15z m-111 -22 c7 -17 -40 -29 -50 -13 -3 6 -1 7 6 3 6 -4 14
0 17 8 8 20 20 21 27 2z m7 -36 c0 -5 -5 -10 -11 -10 -5 0 -7 5 -4 10 3 6 8
10 11 10 2 0 4 -4 4 -10z m0 -182 c0 -6 -9 -8 -20 -5 -11 3 -22 1 -25 -4 -3
-5 -24 -7 -45 -5 -36 4 -56 -7 -30 -16 5 -1 -2 -14 -15 -27 -20 -19 -25 -20
-25 -7 0 10 7 30 15 46 13 26 18 28 55 23 23 -3 40 -2 40 4 0 6 11 8 25 5 14
-2 25 -9 25 -14z m-150 -249 c0 -11 -4 -18 -10 -14 -5 3 -7 12 -3 20 7 21 13
19 13 -6z m80 -191 c0 -6 -6 -5 -15 2 -8 7 -15 14 -15 16 0 2 7 1 15 -2 8 -4
15 -11 15 -16z m73 -80 c2 -7 1 -22 -4 -33 -6 -17 -8 -17 -8 -2 -1 9 -1 20 0
23 0 4 -5 11 -13 15 -10 7 -9 9 3 9 9 0 19 -6 22 -12z m377 -238 c-6 -12 -14
-19 -18 -16 -3 4 0 12 6 18 7 7 13 30 14 53 l1 40 4 -37 c2 -20 -1 -47 -7 -58z
m5 -77 c-2 -10 -4 -24 -4 -30 -1 -7 -5 -13 -9 -13 -10 0 -9 30 2 48 10 17 15
15 11 -5z m-7 -64 c-2 -6 -8 -10 -13 -10 -5 0 -11 4 -13 10 -2 6 4 11 13 11 9
0 15 -5 13 -11z m-724 -164 c3 -8 1 -15 -4 -15 -6 0 -10 7 -10 15 0 8 2 15 4
15 2 0 6 -7 10 -15z m-197 -331 c-3 -3 -12 -4 -19 -1 -8 3 -5 6 6 6 11 1 17
-2 13 -5z m-239 -206 c-2 -6 -10 -14 -16 -16 -7 -2 -10 2 -6 12 7 18 28 22 22
4z m-38 -37 c0 -5 -10 -13 -22 -17 -13 -3 -31 -15 -41 -25 -10 -11 -23 -19
-30 -19 -6 0 -1 7 12 16 18 13 20 18 10 25 -8 5 -9 9 -4 10 24 2 47 8 53 13 9
9 22 7 22 -3z m38 -19 c10 -7 8 -12 -6 -25 -18 -16 -20 -16 -32 -1 -12 13 -11
17 1 25 17 11 21 11 37 1z m-1278 -62 c0 -5 -18 -10 -40 -10 -22 0 -40 5 -40
10 0 6 18 10 40 10 22 0 40 -4 40 -10z m1165 -11 c-4 -5 2 -9 11 -9 30 0 1
-21 -42 -30 -40 -9 -64 0 -64 25 0 8 8 11 20 8 29 -8 72 5 64 19 -4 7 -3 8 5
4 6 -4 9 -12 6 -17z m-170 -49 c3 -5 1 -10 -4 -10 -6 0 -11 5 -11 10 0 6 2 10
4 10 3 0 8 -4 11 -10z m245 -109 c0 -5 -11 -8 -24 -7 -13 0 -22 4 -19 9 6 10
43 9 43 -2z m-430 -76 c52 -2 112 -4 133 -4 20 -1 37 -5 37 -11 0 -6 -102 -10
-285 -10 -180 0 -285 4 -285 10 0 19 110 29 240 22 36 -2 108 -5 160 -7z
m-430 -9 c0 -3 -4 -8 -10 -11 -5 -3 -10 -1 -10 4 0 6 5 11 10 11 6 0 10 -2 10
-4z m480 -596 c-20 -13 -60 -13 -60 0 0 6 17 10 38 10 27 0 33 -3 22 -10z"/>
<path d="M4165 4210 c-3 -6 1 -7 9 -4 18 7 21 14 7 14 -6 0 -13 -4 -16 -10z"/>
<path d="M2334 3581 c-52 -11 -101 -28 -134 -49 -28 -18 -54 -32 -58 -32 -4 0
-30 -22 -59 -48 -56 -53 -109 -147 -119 -212 -8 -50 2 -60 61 -60 44 0 65 13
65 42 0 46 83 153 142 184 37 19 37 19 25 -26 -13 -46 3 -165 25 -186 9 -9 71
-14 205 -18 l192 -7 17 25 c24 38 35 99 25 150 -11 60 2 60 60 -1 49 -52 82
-103 93 -146 6 -25 10 -27 61 -27 29 0 57 5 60 11 10 16 -14 97 -46 154 -56
100 -182 197 -307 235 -89 28 -209 32 -308 11z"/>
<path d="M4111 3160 c-1 -27 22 -48 44 -39 20 7 20 8 -1 8 -12 1 -26 11 -32
24 -6 13 -11 16 -11 7z"/>
<path d="M3095 3047 c-3 -7 -14 -48 -25 -92 -18 -71 -47 -139 -111 -256 -19
-35 -33 -153 -18 -143 4 2 10 -9 14 -25 8 -35 68 -93 114 -109 19 -7 65 -15
102 -18 61 -6 67 -5 73 14 4 11 4 33 2 49 -5 28 -3 30 43 42 79 20 113 76 80
130 -14 23 -26 31 -48 31 -17 0 -33 -5 -36 -10 -15 -25 -70 -42 -138 -43 -59
0 -75 -4 -91 -21 -18 -21 -19 -21 -13 24 3 27 21 73 46 115 22 39 47 84 56
102 21 45 50 193 39 202 -16 15 -85 21 -89 8z"/>
<path d="M4805 2890 c3 -5 8 -10 11 -10 2 0 4 5 4 10 0 6 -5 10 -11 10 -5 0
-7 -4 -4 -10z"/>
<path d="M3955 2861 c-14 -14 0 -21 40 -21 29 0 45 4 45 13 0 11 -75 19 -85 8z"/>
<path d="M3832 2510 c-19 -31 -14 -46 8 -22 20 21 26 42 12 42 -4 0 -13 -9
-20 -20z"/>
<path d="M1868 2508 c9 -9 15 -9 24 0 9 9 7 12 -12 12 -19 0 -21 -3 -12 -12z"/>
<path d="M1850 2470 c-23 -14 8 -22 45 -11 17 5 22 10 13 10 -9 1 -22 3 -30 6
-7 3 -20 1 -28 -5z"/>
<path d="M1980 2430 c0 -54 3 -58 26 -36 9 9 10 17 4 21 -5 3 -10 19 -10 36 0
16 -4 29 -10 29 -5 0 -10 -22 -10 -50z"/>
<path d="M1828 2423 c-5 -20 -2 -23 20 -22 16 1 20 3 10 6 -9 2 -18 12 -20 21
-3 13 -5 12 -10 -5z"/>
<path d="M3620 2386 c0 -2 7 -7 16 -10 8 -3 12 -2 9 4 -6 10 -25 14 -25 6z"/>
<path d="M4771 2364 c0 -11 3 -14 6 -6 3 7 2 16 -1 19 -3 4 -6 -2 -5 -13z"/>
<path d="M2247 2323 c-4 -3 -7 -16 -6 -27 0 -14 2 -16 6 -6 3 8 12 21 21 28
14 10 14 12 1 12 -9 0 -19 -3 -22 -7z"/>
<path d="M3680 2300 c6 -11 15 -20 20 -20 17 0 11 15 -11 28 -19 12 -19 11 -9
-8z"/>
<path d="M2318 2233 c7 -3 16 -2 19 1 4 3 -2 6 -13 5 -11 0 -14 -3 -6 -6z"/>
<path d="M2560 2176 c0 -9 5 -16 10 -16 6 0 10 4 10 9 0 6 -4 13 -10 16 -5 3
-10 -1 -10 -9z"/>
<path d="M3340 2180 c0 -12 17 -12 45 0 17 7 15 9 -12 9 -18 1 -33 -3 -33 -9z"/>
<path d="M2618 2133 c7 -3 16 -2 19 1 4 3 -2 6 -13 5 -11 0 -14 -3 -6 -6z"/>
<path d="M3206 2133 c-3 -3 -1 -12 5 -20 13 -14 49 -18 49 -5 0 11 -46 32 -54
25z"/>
<path d="M2724 2086 c4 -15 1 -26 -7 -30 -6 -3 1 -4 17 -3 27 2 51 27 26 27
-6 0 -8 -4 -5 -10 3 -5 1 -10 -4 -10 -11 0 -15 13 -12 38 1 6 -3 12 -10 12 -7
0 -9 -9 -5 -24z"/>
<path d="M2657 2073 c-9 -15 9 -35 28 -31 16 3 15 5 -3 21 -11 10 -22 14 -25
10z"/>
</g>
</svg>
